<svg xmlns="http://www.w3.org/2000/svg" width="512" height="512" viewBox="0 0 512 512" version="1.1">
	<path d="M 188.478 52.514 C 152.740 72.596, 122.713 89.971, 121.750 91.125 C 120.219 92.959, 120 95.589, 120 112.156 C 120 130.926, 120.021 131.112, 122.455 133.545 C 123.899 134.990, 126.069 136, 127.726 136 C 129.576 136, 151.901 123.987, 192.772 101 C 226.998 81.750, 255.451 66, 256 66 C 256.549 66, 285.002 81.750, 319.228 101 C 360.099 123.987, 382.424 136, 384.274 136 C 385.931 136, 388.101 134.990, 389.545 133.545 C 391.979 131.112, 392 130.926, 392 112.156 C 392 95.582, 391.782 92.962, 390.250 91.141 C 389.288 89.997, 382.200 85.511, 374.500 81.173 L 360.500 73.284 360 46.552 C 359.502 19.942, 359.489 19.812, 357.139 17.910 C 354.969 16.154, 352.928 16, 331.844 16 L 308.909 16 306.455 18.455 C 304.174 20.735, 304 21.622, 304 30.955 C 304 36.480, 303.776 41, 303.503 41 C 303.229 41, 292.996 35.375, 280.762 28.500 C 268.528 21.625, 257.379 16, 255.987 16 C 254.511 16, 226.359 31.226, 188.478 52.514 M 192.500 108.503 C 158.950 128.630, 130.713 146.025, 129.750 147.159 C 128.125 149.075, 128 153.597, 128 210.611 L 128 272 74.455 272 L 20.909 272 18.455 274.455 L 16 276.909 16 360 L 16 443.091 18.455 445.545 C 20.889 447.980, 21.066 448, 40.205 448.024 L 59.500 448.047 65.750 457.516 L 72 466.986 72 481.493 L 72 496 80 496 L 88 496 88 478.471 L 88 460.941 80 449 L 72 437.059 72 408.101 C 72 383.109, 72.215 378.928, 73.571 377.571 C 75.545 375.598, 76.455 375.598, 78.429 377.571 C 79.656 378.799, 80 381.424, 80 389.571 L 80 400 88 400 L 96 400 96 381.571 C 96 366.152, 96.257 362.886, 97.571 361.571 C 99.545 359.598, 100.455 359.598, 102.429 361.571 C 103.712 362.855, 104 365.788, 104 377.571 L 104 392 112 392 L 120 392 120 369.571 C 120 350.515, 120.236 346.907, 121.571 345.571 C 123.545 343.598, 124.455 343.598, 126.429 345.571 C 127.764 346.907, 128 350.515, 128 369.571 L 128 392 136 392 L 144 392 144 373.571 C 144 358.152, 144.257 354.886, 145.571 353.571 C 147.545 351.598, 148.455 351.598, 150.429 353.571 C 151.788 354.931, 152 359.242, 152 385.571 L 152 416 160 416 L 168 416 168 405.571 C 168 397.424, 168.344 394.799, 169.571 393.571 C 170.436 392.707, 171.529 392, 172 392 C 172.471 392, 173.564 392.707, 174.429 393.571 C 175.772 394.914, 175.997 398.658, 175.982 419.321 L 175.965 443.500 165.413 450.430 C 159.610 454.241, 154.218 458.279, 153.431 459.402 C 152.324 460.983, 152 465.354, 152 478.723 L 152 496 160 496 L 168 496 168.024 482.250 L 168.049 468.500 179.143 461.167 C 187.099 455.908, 190.548 453.009, 191.337 450.917 L 192.438 448 260 448 L 327.562 448 328.625 450.818 C 329.365 452.777, 333.080 455.902, 340.810 461.068 L 351.930 468.500 351.965 482.250 L 352 496 360 496 L 368 496 368 478.723 C 368 465.354, 367.676 460.983, 366.569 459.402 C 365.782 458.279, 360.390 454.241, 354.587 450.430 L 344.035 443.500 344.018 419.321 C 344.003 398.658, 344.228 394.914, 345.571 393.571 C 347.545 391.598, 348.455 391.598, 350.429 393.571 C 351.656 394.799, 352 397.424, 352 405.571 L 352 416 360 416 L 368 416 368 385.571 C 368 359.242, 368.212 354.931, 369.571 353.571 C 370.436 352.707, 371.529 352, 372 352 C 372.471 352, 373.564 352.707, 374.429 353.571 C 375.743 354.886, 376 358.152, 376 373.571 L 376 392 384 392 L 392 392 392 369.571 C 392 350.515, 392.236 346.907, 393.571 345.571 C 395.545 343.598, 396.455 343.598, 398.429 345.571 C 399.764 346.907, 400 350.515, 400 369.571 L 400 392 408 392 L 416 392 416 377.571 C 416 365.788, 416.288 362.855, 417.571 361.571 C 419.545 359.598, 420.455 359.598, 422.429 361.571 C 423.743 362.886, 424 366.152, 424 381.571 L 424 400 432 400 L 440 400 440 389.571 C 440 381.424, 440.344 378.799, 441.571 377.571 C 443.545 375.598, 444.455 375.598, 446.429 377.571 C 447.785 378.928, 448 383.109, 448 408.101 L 448 437.059 440 449 L 432 460.941 432 478.471 L 432 496 440 496 L 448 496 448 481.493 L 448 466.986 454.250 457.516 L 460.500 448.047 475.795 448.024 C 490.687 448.001, 491.156 447.935, 493.545 445.545 L 496 443.091 496 360 L 496 276.909 493.545 274.455 L 491.091 272 437.545 272 L 384 272 384 210.934 C 384 171.725, 383.638 149.193, 382.990 147.981 C 381.560 145.309, 260.207 72.640, 256.500 72.236 C 254.046 71.968, 242.407 78.564, 192.500 108.503 M 200 123.301 L 144.500 156.602 144.242 214.301 L 143.984 272 183.992 272 L 224 272 224 238.174 L 224 204.349 226.314 202.174 C 228.575 200.050, 229.267 200, 256.242 200 L 283.855 200 285.927 202.635 C 287.930 205.181, 288 206.394, 288 238.635 L 288 272 328.008 272 L 368.016 272 367.758 214.301 L 367.500 156.602 312 123.301 C 281.475 104.986, 256.275 90.001, 256 90.001 C 255.725 90.001, 230.525 104.986, 200 123.301 M 245.882 105.321 C 237.461 108.468, 231.135 114.077, 226.759 122.278 C 224.876 125.805, 224.505 128.063, 224.503 136 C 224.500 144.644, 224.765 145.978, 227.438 150.804 C 230.776 156.829, 235.936 161.860, 242.205 165.204 C 245.815 167.129, 248.015 167.494, 256 167.494 C 263.985 167.494, 266.185 167.129, 269.795 165.204 C 276.064 161.860, 281.224 156.829, 284.562 150.804 C 287.235 145.978, 287.500 144.644, 287.497 136 C 287.494 125.412, 286.002 121.329, 279.510 114.143 C 273.752 107.769, 266.829 104.669, 257.512 104.293 C 252.463 104.089, 248.162 104.469, 245.882 105.321" stroke="none" fill="black" fill-rule="evenodd"/>
</svg>